<svg xmlns="http://www.w3.org/2000/svg" xmlns:xlink="http://www.w3.org/1999/xlink" version="1.1" width="256" height="256" viewBox="0 0 256 256" xml:space="preserve">
<desc>Created with Fabric.js 1.7.22</desc>
<defs>
</defs>
<g transform="translate(128 128) scale(0.72 0.72)" style="">
	<g style="stroke: none; stroke-width: 0; stroke-dasharray: none; stroke-linecap: butt; stroke-linejoin: miter; stroke-miterlimit: 10; fill: none; fill-rule: nonzero; opacity: 1;" transform="translate(-175.05 -175.05000000000004) scale(3.89 3.89)" >
	<path d="M 45 74.962 c -0.828 0 -1.5 -0.672 -1.5 -1.5 c 0 -0.865 -0.799 -2.49 -2.327 -3.924 c -1.086 -1.018 -2.28 -1.646 -3.042 -1.596 c -0.719 0.043 -1.381 -0.435 -1.553 -1.143 c -0.974 -4.021 -3.21 -6.877 -6.647 -8.487 c -6.17 -2.892 -16.227 -1.633 -26.247 3.29 c -0.408 0.198 -0.883 0.204 -1.294 0.013 s -0.714 -0.559 -0.823 -0.999 C -2.81 42.933 1.958 28.15 16.143 15.421 c 0.341 -0.307 0.803 -0.439 1.255 -0.362 c 0.452 0.078 0.843 0.357 1.063 0.759 c 4.297 7.865 10.119 13.847 17.323 17.807 c 0.121 -1.145 0.037 -2.203 -0.251 -3.2 c -2.047 -2.506 -2.327 -5.235 -2.623 -8.118 l -0.041 -0.392 c -0.047 -0.458 0.119 -0.914 0.451 -1.234 c 0.331 -0.321 0.791 -0.47 1.25 -0.406 c 3.271 0.459 5.684 1.884 7.197 4.245 c 0.935 -0.635 1.948 -0.904 3.233 -0.904 s 2.298 0.269 3.233 0.904 c 1.514 -2.361 3.926 -3.787 7.198 -4.245 c 0.453 -0.064 0.917 0.085 1.249 0.406 c 0.332 0.32 0.499 0.775 0.451 1.234 l -0.04 0.386 c -0.296 2.885 -0.576 5.616 -2.624 8.124 c -0.289 0.997 -0.373 2.056 -0.252 3.2 c 7.205 -3.96 13.026 -9.942 17.323 -17.807 c 0.22 -0.402 0.611 -0.682 1.063 -0.759 c 0.452 -0.074 0.914 0.057 1.255 0.362 C 88.042 28.15 92.81 42.933 88.432 60.615 c -0.109 0.44 -0.411 0.807 -0.823 0.999 c -0.41 0.192 -0.888 0.187 -1.294 -0.013 c -10.021 -4.922 -20.078 -6.183 -26.247 -3.29 c -3.437 1.61 -5.674 4.466 -6.647 8.487 c -0.172 0.708 -0.834 1.184 -1.553 1.143 c -0.772 -0.06 -1.956 0.579 -3.042 1.596 c -1.527 1.434 -2.327 3.059 -2.327 3.924 C 46.5 74.29 45.828 74.962 45 74.962 z" style="stroke: none; stroke-width: 1; stroke-dasharray: none; stroke-linecap: butt; stroke-linejoin: miter; stroke-miterlimit: 10; fill: rgb(62,69,86); fill-rule: nonzero; opacity: 1;" transform=" matrix(1 0 0 1 0 0) " stroke-linecap="round" />
</g>
</g>
</svg>