<svg xmlns="http://www.w3.org/2000/svg" xmlns:xlink="http://www.w3.org/1999/xlink" version="1.1" width="256" height="256" viewBox="0 0 256 256" xml:space="preserve">
<desc>Created with Fabric.js 1.7.22</desc>
<defs>
</defs>
<g transform="translate(128 128) scale(0.72 0.72)" style="">
	<g style="stroke: none; stroke-width: 0; stroke-dasharray: none; stroke-linecap: butt; stroke-linejoin: miter; stroke-miterlimit: 10; fill: none; fill-rule: nonzero; opacity: 1;" transform="translate(-175.05 -175.05000000000004) scale(3.89 3.89)" >
	<path d="M 4.252 28.924 c -0.699 2.15 2.272 4.7 3.459 6.181 c -1.83 0.5 -5.733 0.817 -6.432 2.968 c -0.662 2.036 -0.138 4.58 1.475 7.162 c 1.583 2.535 4.097 4.92 7.27 6.898 c 3.045 1.898 6.331 2.946 9.118 3.522 c -1.846 1.97 -3.923 4.694 -5.325 8.152 c -1.405 3.465 -2.036 6.873 -1.827 9.854 c 0.213 3.037 1.285 5.403 3.017 6.662 c 1.829 1.329 5.173 -0.709 6.947 -1.379 c -0.089 1.895 -0.994 5.704 0.835 7.033 c 1.732 1.258 4.313 1.546 7.267 0.81 c 2.9 -0.722 5.945 -2.376 8.807 -4.783 c 2.725 -2.292 4.722 -5.028 6.144 -7.518 c 1.408 2.455 3.408 5.228 6.131 7.518 c 2.861 2.406 5.906 4.061 8.807 4.783 c 2.954 0.736 5.535 0.448 7.267 -0.811 c 1.829 -1.329 0.924 -5.139 0.835 -7.034 c 1.775 0.671 5.119 2.708 6.948 1.379 c 1.733 -1.258 2.804 -3.624 3.017 -6.661 c 0.209 -2.982 -0.423 -6.389 -1.827 -9.854 c -1.336 -3.295 -3.315 -6.034 -5.241 -8.156 c 2.804 -0.584 6.015 -1.636 9.034 -3.518 c 3.173 -1.977 5.687 -4.362 7.271 -6.898 c 1.613 -2.582 2.136 -5.125 1.475 -7.162 c -0.699 -2.15 -4.602 -2.467 -6.432 -2.967 c 1.187 -1.48 4.158 -4.031 3.459 -6.182 c -0.662 -2.036 -2.581 -3.786 -5.403 -4.926 c -2.771 -1.12 -6.207 -1.573 -9.936 -1.307 c -3.639 0.259 -6.905 1.461 -9.4 2.646 c 0.331 -2.883 0.343 -6.339 -0.531 -9.861 c -0.9 -3.629 -2.392 -6.757 -4.313 -9.046 c -0.71 -0.845 -1.46 -1.554 -2.229 -2.112 c -1.351 -0.981 -2.763 -1.503 -4.127 -1.503 c -2.261 0 -3.768 3.613 -4.811 5.199 c -1.041 -1.586 -2.549 -5.2 -4.811 -5.2 c -2.141 0.001 -4.398 1.284 -6.355 3.616 c -1.922 2.289 -3.413 5.417 -4.313 9.046 c -0.864 3.482 -0.846 6.931 -0.533 9.759 c -2.443 -1.146 -5.677 -2.28 -9.398 -2.544 c -3.729 -0.265 -7.165 0.187 -9.936 1.307 C 6.831 25.138 4.913 26.888 4.252 28.924 z" style="stroke: none; stroke-width: 1; stroke-dasharray: none; stroke-linecap: butt; stroke-linejoin: miter; stroke-miterlimit: 10; fill: rgb(255,215,209); fill-rule: nonzero; opacity: 1;" transform=" matrix(1 0 0 1 0 0) " stroke-linecap="round" />
	<circle cx="45.004000000000005" cy="47.004000000000005" r="7.334" style="stroke: none; stroke-width: 1; stroke-dasharray: none; stroke-linecap: butt; stroke-linejoin: miter; stroke-miterlimit: 10; fill: rgb(255,155,135); fill-rule: nonzero; opacity: 1;" transform="  matrix(1 0 0 1 0 0) "/>
	<path d="M 27.014 88.185 c -1.885 0 -3.537 -0.472 -4.814 -1.399 c -1.826 -1.326 -1.636 -4.087 -1.405 -6.249 c -1.983 0.889 -4.55 1.922 -6.378 0.595 c -1.975 -1.435 -3.192 -4.063 -3.426 -7.4 c -0.22 -3.133 0.436 -6.694 1.898 -10.3 c 1.022 -2.52 2.495 -4.93 4.388 -7.184 c -2.895 -0.751 -5.506 -1.847 -7.784 -3.267 c -3.301 -2.058 -5.926 -4.553 -7.589 -7.216 c -1.772 -2.838 -2.333 -5.679 -1.578 -8.001 c 0.698 -2.147 3.382 -2.819 5.51 -3.267 C 4.38 32.884 2.603 30.761 3.3 28.616 l 0 0 c 0.754 -2.322 2.877 -4.292 5.979 -5.546 c 2.911 -1.177 6.503 -1.653 10.382 -1.378 c 2.712 0.193 5.46 0.849 8.188 1.954 c -0.18 -2.984 0.055 -5.806 0.702 -8.411 c 0.938 -3.777 2.5 -7.044 4.519 -9.448 c 2.149 -2.562 4.678 -3.973 7.121 -3.973 c 2.257 0 3.727 2.346 4.811 4.231 c 1.084 -1.884 2.554 -4.23 4.809 -4.23 c 0.001 0 0.001 0 0.001 0 c 0.001 0 0.002 0 0.003 0 c 1.558 0 3.188 0.585 4.712 1.693 c 0.841 0.611 1.65 1.378 2.406 2.278 c 2.021 2.406 3.583 5.673 4.519 9.448 c 0.658 2.653 0.896 5.505 0.707 8.497 c 2.812 -1.168 5.558 -1.853 8.182 -2.039 c 3.886 -0.274 7.471 0.201 10.382 1.378 c 3.1 1.253 5.223 3.222 5.979 5.545 c 0.697 2.147 -1.078 4.269 -2.536 5.883 c 2.127 0.448 4.811 1.12 5.509 3.267 c 0.754 2.324 0.194 5.166 -1.578 8.001 c -1.661 2.663 -4.286 5.159 -7.589 7.217 c -2.287 1.426 -4.88 2.522 -7.727 3.266 c 1.865 2.275 3.319 4.687 4.332 7.184 c 1.461 3.605 2.117 7.166 1.897 10.3 c -0.233 3.337 -1.45 5.965 -3.426 7.4 c -1.827 1.326 -4.393 0.293 -6.378 -0.596 c 0.231 2.162 0.421 4.924 -1.404 6.25 c -1.978 1.436 -4.854 1.779 -8.097 0.973 c -3.049 -0.76 -6.233 -2.484 -9.209 -4.988 c -2.044 -1.719 -3.885 -3.851 -5.487 -6.353 c -1.59 2.483 -3.436 4.615 -5.502 6.353 c -2.976 2.504 -6.16 4.229 -9.209 4.988 C 29.149 88.044 28.046 88.185 27.014 88.185 z M 21.953 77.944 c 0.208 0 0.415 0.065 0.588 0.191 c 0.272 0.197 0.427 0.52 0.411 0.855 c -0.019 0.392 -0.069 0.861 -0.126 1.373 c -0.179 1.624 -0.449 4.079 0.55 4.805 c 1.488 1.081 3.775 1.311 6.438 0.648 c 2.754 -0.686 5.66 -2.269 8.405 -4.578 c 2.272 -1.91 4.264 -4.35 5.92 -7.248 c 0.178 -0.312 0.509 -0.504 0.868 -0.504 h 0 c 0.358 0 0.689 0.191 0.868 0.503 c 1.676 2.924 3.664 5.363 5.907 7.249 c 2.745 2.31 5.651 3.893 8.405 4.578 c 2.662 0.663 4.949 0.433 6.438 -0.649 c 0.998 -0.725 0.729 -3.179 0.55 -4.803 c -0.057 -0.513 -0.107 -0.983 -0.126 -1.375 c -0.016 -0.336 0.139 -0.658 0.411 -0.856 c 0.274 -0.196 0.628 -0.243 0.941 -0.126 c 0.366 0.139 0.797 0.332 1.266 0.543 c 1.489 0.673 3.739 1.689 4.74 0.963 c 1.489 -1.082 2.415 -3.185 2.607 -5.922 c 0.198 -2.831 -0.409 -6.084 -1.757 -9.407 c -1.114 -2.749 -2.815 -5.394 -5.055 -7.861 c -0.241 -0.266 -0.321 -0.64 -0.211 -0.981 c 0.111 -0.341 0.396 -0.597 0.748 -0.67 c 3.261 -0.678 6.191 -1.817 8.707 -3.387 c 3.046 -1.898 5.45 -4.174 6.951 -6.579 c 1.454 -2.326 1.94 -4.571 1.372 -6.324 c -0.382 -1.173 -2.8 -1.675 -4.399 -2.006 c -0.505 -0.105 -0.967 -0.202 -1.345 -0.305 c -0.325 -0.089 -0.583 -0.335 -0.688 -0.656 c -0.104 -0.32 -0.04 -0.671 0.171 -0.934 c 0.245 -0.305 0.562 -0.654 0.907 -1.034 c 1.101 -1.209 2.763 -3.038 2.381 -4.213 c -0.569 -1.751 -2.283 -3.281 -4.826 -4.308 c -2.631 -1.064 -5.917 -1.491 -9.489 -1.237 c -2.864 0.204 -5.906 1.063 -9.042 2.552 c -0.325 0.156 -0.714 0.123 -1.011 -0.09 c -0.295 -0.211 -0.453 -0.566 -0.411 -0.928 c 0.388 -3.383 0.217 -6.582 -0.509 -9.507 c -0.862 -3.481 -2.283 -6.47 -4.108 -8.644 c -0.651 -0.776 -1.342 -1.431 -2.051 -1.946 c -1.181 -0.858 -2.403 -1.312 -3.537 -1.312 c -0.001 0 -0.001 0 -0.002 0 l 0 0 c -1.233 0 -2.457 2.143 -3.268 3.562 c -0.256 0.448 -0.491 0.858 -0.707 1.187 C 45.651 8.844 45.337 9.013 45 9.013 c 0 0 0 0 0 0 c -0.336 0 -0.65 -0.169 -0.835 -0.451 c -0.215 -0.327 -0.45 -0.737 -0.705 -1.184 c -0.811 -1.42 -2.035 -3.565 -3.27 -3.565 c -1.841 0 -3.826 1.158 -5.589 3.259 c -1.824 2.171 -3.245 5.16 -4.109 8.643 c -0.711 2.865 -0.883 6.03 -0.51 9.408 c 0.04 0.36 -0.118 0.713 -0.412 0.923 c -0.295 0.21 -0.681 0.245 -1.007 0.092 c -3.016 -1.415 -6.059 -2.24 -9.044 -2.452 c -3.579 -0.256 -6.86 0.173 -9.49 1.237 c -2.544 1.028 -4.258 2.559 -4.826 4.309 c 0 0 0 0 0 0 c -0.382 1.173 1.28 3.001 2.379 4.21 c 0.346 0.381 0.664 0.731 0.908 1.037 c 0.211 0.263 0.275 0.614 0.171 0.935 c -0.104 0.32 -0.362 0.566 -0.688 0.655 c -0.378 0.104 -0.84 0.2 -1.345 0.305 c -1.6 0.332 -4.018 0.833 -4.4 2.007 c -0.569 1.75 -0.082 3.996 1.372 6.323 c 1.502 2.407 3.906 4.681 6.951 6.579 c 2.504 1.562 5.462 2.702 8.791 3.392 c 0.354 0.073 0.642 0.333 0.751 0.678 c 0.109 0.345 0.024 0.722 -0.223 0.985 c -2.278 2.432 -4.003 5.07 -5.128 7.845 c -1.348 3.324 -1.955 6.577 -1.756 9.407 c 0.192 2.737 1.118 4.841 2.607 5.923 c 1 0.727 3.249 -0.29 4.737 -0.962 c 0.47 -0.212 0.902 -0.405 1.269 -0.544 C 21.714 77.965 21.834 77.944 21.953 77.944 z M 4.252 28.924 h 0.01 H 4.252 z" style="stroke: none; stroke-width: 1; stroke-dasharray: none; stroke-linecap: butt; stroke-linejoin: miter; stroke-miterlimit: 10; fill: rgb(29,29,27); fill-rule: nonzero; opacity: 1;" transform=" matrix(1 0 0 1 0 0) " stroke-linecap="round" />
	<path d="M 33.054 44.308 c -0.102 0 -0.207 -0.016 -0.309 -0.049 l -9.848 -3.2 c -0.525 -0.171 -0.813 -0.735 -0.642 -1.26 c 0.17 -0.524 0.735 -0.812 1.26 -0.642 l 9.848 3.2 c 0.525 0.171 0.813 0.735 0.642 1.26 C 33.868 44.039 33.476 44.308 33.054 44.308 z" style="stroke: none; stroke-width: 1; stroke-dasharray: none; stroke-linecap: butt; stroke-linejoin: miter; stroke-miterlimit: 10; fill: rgb(29,29,27); fill-rule: nonzero; opacity: 1;" transform=" matrix(1 0 0 1 0 0) " stroke-linecap="round" />
	<path d="M 45 35.5 c -0.552 0 -1 -0.448 -1 -1 V 24.273 c 0 -0.552 0.448 -1 1 -1 s 1 0.448 1 1 V 34.5 C 46 35.052 45.552 35.5 45 35.5 z" style="stroke: none; stroke-width: 1; stroke-dasharray: none; stroke-linecap: butt; stroke-linejoin: miter; stroke-miterlimit: 10; fill: rgb(29,29,27); fill-rule: nonzero; opacity: 1;" transform=" matrix(1 0 0 1 0 0) " stroke-linecap="round" />
	<path d="M 56.946 44.308 c -0.422 0 -0.813 -0.269 -0.951 -0.691 c -0.171 -0.525 0.117 -1.089 0.643 -1.26 l 9.848 -3.2 c 0.524 -0.171 1.089 0.117 1.26 0.642 c 0.171 0.525 -0.117 1.089 -0.643 1.26 l -9.848 3.2 C 57.152 44.291 57.048 44.308 56.946 44.308 z" style="stroke: none; stroke-width: 1; stroke-dasharray: none; stroke-linecap: butt; stroke-linejoin: miter; stroke-miterlimit: 10; fill: rgb(29,29,27); fill-rule: nonzero; opacity: 1;" transform=" matrix(1 0 0 1 0 0) " stroke-linecap="round" />
	<path d="M 31.53 66.727 c -0.204 0 -0.409 -0.062 -0.587 -0.191 c -0.447 -0.324 -0.546 -0.949 -0.221 -1.397 l 6.135 -8.445 c 0.325 -0.447 0.95 -0.547 1.397 -0.221 c 0.447 0.324 0.546 0.949 0.221 1.397 l -6.135 8.445 C 32.144 66.584 31.84 66.727 31.53 66.727 z" style="stroke: none; stroke-width: 1; stroke-dasharray: none; stroke-linecap: butt; stroke-linejoin: miter; stroke-miterlimit: 10; fill: rgb(29,29,27); fill-rule: nonzero; opacity: 1;" transform=" matrix(1 0 0 1 0 0) " stroke-linecap="round" />
	<path d="M 58.47 66.727 c -0.31 0 -0.614 -0.143 -0.81 -0.412 l -6.135 -8.445 c -0.325 -0.447 -0.226 -1.072 0.221 -1.397 c 0.447 -0.324 1.072 -0.227 1.397 0.221 l 6.135 8.445 c 0.325 0.447 0.226 1.072 -0.221 1.397 C 58.879 66.664 58.674 66.727 58.47 66.727 z" style="stroke: none; stroke-width: 1; stroke-dasharray: none; stroke-linecap: butt; stroke-linejoin: miter; stroke-miterlimit: 10; fill: rgb(29,29,27); fill-rule: nonzero; opacity: 1;" transform=" matrix(1 0 0 1 0 0) " stroke-linecap="round" />
	<path d="M 45 55.334 c -4.595 0 -8.334 -3.738 -8.334 -8.334 c 0 -4.595 3.739 -8.334 8.334 -8.334 c 4.596 0 8.334 3.739 8.334 8.334 C 53.334 51.596 49.596 55.334 45 55.334 z M 45 40.666 c -3.493 0 -6.334 2.841 -6.334 6.334 c 0 3.492 2.841 6.334 6.334 6.334 c 3.492 0 6.334 -2.842 6.334 -6.334 C 51.334 43.507 48.492 40.666 45 40.666 z" style="stroke: none; stroke-width: 1; stroke-dasharray: none; stroke-linecap: butt; stroke-linejoin: miter; stroke-miterlimit: 10; fill: rgb(29,29,27); fill-rule: nonzero; opacity: 1;" transform=" matrix(1 0 0 1 0 0) " stroke-linecap="round" />
</g>
</g>
</svg>